<svg width="40" height="40" viewBox="0 0 40 40" fill="none" xmlns="http://www.w3.org/2000/svg">
<rect width="40" height="40" rx="16" fill="#333333"/>
<path d="M27.9582 17.9424C28.2911 15.7358 26.5967 14.5496 24.2799 13.7583L25.0314 10.7691L23.1964 10.3157L22.4648 13.226C21.9824 13.1068 21.4869 12.9944 20.9946 12.883L21.7315 9.95345L19.8976 9.5L19.1455 12.4881C18.7462 12.3979 18.3542 12.3088 17.9737 12.215L17.9758 12.2057L15.4452 11.5791L14.9571 13.5225C14.9571 13.5225 16.3186 13.8318 16.2898 13.851C17.033 14.035 17.1673 14.5226 17.1448 14.9092L16.2888 18.3145C16.34 18.3274 16.4064 18.3461 16.4795 18.3751C16.4184 18.3601 16.353 18.3435 16.2856 18.3274L15.0856 23.0977C14.9947 23.3216 14.7642 23.6574 14.2447 23.5299C14.263 23.5563 12.911 23.1998 12.911 23.1998L12 25.2825L14.3879 25.8728C14.8322 25.9832 15.2675 26.0987 15.6961 26.2075L14.9367 29.2309L16.7696 29.6843L17.5217 26.6931C18.0223 26.8279 18.5084 26.9522 18.984 27.0694L18.2345 30.0466L20.0695 30.5L20.8289 27.4824C23.9579 28.0695 26.3108 27.8327 27.3012 25.0265C28.0993 22.7671 27.2615 21.4637 25.6152 20.6138C26.8141 20.3397 27.7172 19.5577 27.9582 17.9424ZM23.7656 23.7719C23.1985 26.0314 19.3619 24.8099 18.118 24.5036L19.1256 20.4983C20.3695 20.8061 24.3583 21.4155 23.7656 23.7719ZM24.3332 17.9097C23.8158 19.965 20.6225 18.9208 19.5866 18.6648L20.5002 15.0321C21.536 15.2881 24.872 15.7658 24.3332 17.9097Z" fill="white"/>
</svg>
